<mxfile host="app.diagrams.net" agent="Mozilla/5.0 (Windows NT 10.0; Win64; x64) AppleWebKit/537.36 (KHTML, like Gecko) Chrome/132.0.0.0 YaBrowser/25.2.0.0 Safari/537.36" version="26.2.2">
  <diagram id="wFE0QG_FPsp0jaGvCLVb" name="Page-1">
    <mxGraphModel dx="4614" dy="2296" grid="0" gridSize="10" guides="1" tooltips="1" connect="1" arrows="1" fold="1" page="1" pageScale="1" pageWidth="850" pageHeight="1100" math="0" shadow="0">
      <root>
        <mxCell id="0" />
        <mxCell id="1" parent="0" />
        <mxCell id="-rH5-VLzNjBN6RmqHpsX-12" value="крутой пользователь" style="shape=umlActor;verticalLabelPosition=bottom;verticalAlign=top;html=1;outlineConnect=0;" vertex="1" parent="1">
          <mxGeometry x="58" y="1011" width="30" height="60" as="geometry" />
        </mxCell>
        <mxCell id="-rH5-VLzNjBN6RmqHpsX-13" value="Это лучший аудиохостинг!!!&amp;lt;3" style="shape=callout;whiteSpace=wrap;html=1;perimeter=calloutPerimeter;" vertex="1" parent="1">
          <mxGeometry x="8" y="961" width="170" height="50" as="geometry" />
        </mxCell>
        <mxCell id="-rH5-VLzNjBN6RmqHpsX-10" value="Главная страница" style="swimlane;whiteSpace=wrap;html=1;fillColor=#FFFFFF;" vertex="1" parent="1">
          <mxGeometry x="256" y="195" width="710" height="360" as="geometry" />
        </mxCell>
        <mxCell id="-rH5-VLzNjBN6RmqHpsX-26" value="" style="rounded=1;whiteSpace=wrap;html=1;" vertex="1" parent="-rH5-VLzNjBN6RmqHpsX-10">
          <mxGeometry x="30" y="60" width="340" height="80" as="geometry" />
        </mxCell>
        <mxCell id="-rH5-VLzNjBN6RmqHpsX-11" value="Лого" style="text;html=1;align=center;verticalAlign=middle;whiteSpace=wrap;rounded=0;" vertex="1" parent="-rH5-VLzNjBN6RmqHpsX-10">
          <mxGeometry y="-3.5" width="60" height="30" as="geometry" />
        </mxCell>
        <mxCell id="-rH5-VLzNjBN6RmqHpsX-23" value="воспроизвести" style="rounded=1;whiteSpace=wrap;html=1;fillColor=#0AEEFF;" vertex="1" parent="-rH5-VLzNjBN6RmqHpsX-10">
          <mxGeometry x="40" y="110" width="90" height="20" as="geometry" />
        </mxCell>
        <mxCell id="-rH5-VLzNjBN6RmqHpsX-24" value="добавить в избранное" style="rounded=1;whiteSpace=wrap;html=1;fillColor=#0AEEFF;" vertex="1" parent="-rH5-VLzNjBN6RmqHpsX-10">
          <mxGeometry x="140" y="110" width="130" height="20" as="geometry" />
        </mxCell>
        <mxCell id="-rH5-VLzNjBN6RmqHpsX-25" value="Трек (название и автор)" style="text;html=1;align=center;verticalAlign=middle;whiteSpace=wrap;rounded=0;" vertex="1" parent="-rH5-VLzNjBN6RmqHpsX-10">
          <mxGeometry x="40" y="70" width="150" height="30" as="geometry" />
        </mxCell>
        <mxCell id="-rH5-VLzNjBN6RmqHpsX-27" value="Список хитов месяца" style="text;html=1;align=center;verticalAlign=middle;whiteSpace=wrap;rounded=0;" vertex="1" parent="-rH5-VLzNjBN6RmqHpsX-10">
          <mxGeometry x="5" y="30" width="180" height="30" as="geometry" />
        </mxCell>
        <mxCell id="-rH5-VLzNjBN6RmqHpsX-29" value="" style="rounded=1;whiteSpace=wrap;html=1;" vertex="1" parent="-rH5-VLzNjBN6RmqHpsX-10">
          <mxGeometry x="30" y="160" width="340" height="80" as="geometry" />
        </mxCell>
        <mxCell id="-rH5-VLzNjBN6RmqHpsX-30" value="воспроизвести" style="rounded=1;whiteSpace=wrap;html=1;fillColor=#0AEEFF;" vertex="1" parent="-rH5-VLzNjBN6RmqHpsX-10">
          <mxGeometry x="40" y="210" width="90" height="20" as="geometry" />
        </mxCell>
        <mxCell id="-rH5-VLzNjBN6RmqHpsX-31" value="добавить в избранное" style="rounded=1;whiteSpace=wrap;html=1;fillColor=#0AEEFF;" vertex="1" parent="-rH5-VLzNjBN6RmqHpsX-10">
          <mxGeometry x="140" y="210" width="130" height="20" as="geometry" />
        </mxCell>
        <mxCell id="-rH5-VLzNjBN6RmqHpsX-32" value="Трек (название и автор)" style="text;html=1;align=center;verticalAlign=middle;whiteSpace=wrap;rounded=0;" vertex="1" parent="-rH5-VLzNjBN6RmqHpsX-10">
          <mxGeometry x="40" y="170" width="150" height="30" as="geometry" />
        </mxCell>
        <mxCell id="-rH5-VLzNjBN6RmqHpsX-37" value="" style="rounded=1;whiteSpace=wrap;html=1;" vertex="1" parent="-rH5-VLzNjBN6RmqHpsX-10">
          <mxGeometry x="30" y="260" width="340" height="80" as="geometry" />
        </mxCell>
        <mxCell id="-rH5-VLzNjBN6RmqHpsX-38" value="воспроизвести" style="rounded=1;whiteSpace=wrap;html=1;fillColor=#0AEEFF;" vertex="1" parent="-rH5-VLzNjBN6RmqHpsX-10">
          <mxGeometry x="40" y="310" width="90" height="20" as="geometry" />
        </mxCell>
        <mxCell id="-rH5-VLzNjBN6RmqHpsX-39" value="добавить в избранное" style="rounded=1;whiteSpace=wrap;html=1;fillColor=#0AEEFF;" vertex="1" parent="-rH5-VLzNjBN6RmqHpsX-10">
          <mxGeometry x="140" y="310" width="130" height="20" as="geometry" />
        </mxCell>
        <mxCell id="-rH5-VLzNjBN6RmqHpsX-40" value="Трек (название и автор)" style="text;html=1;align=center;verticalAlign=middle;whiteSpace=wrap;rounded=0;" vertex="1" parent="-rH5-VLzNjBN6RmqHpsX-10">
          <mxGeometry x="40" y="270" width="150" height="30" as="geometry" />
        </mxCell>
        <mxCell id="-rH5-VLzNjBN6RmqHpsX-48" value="" style="ellipse;whiteSpace=wrap;html=1;aspect=fixed;" vertex="1" parent="-rH5-VLzNjBN6RmqHpsX-10">
          <mxGeometry x="600" y="35" width="80" height="80" as="geometry" />
        </mxCell>
        <mxCell id="-rH5-VLzNjBN6RmqHpsX-47" value="Аватар профиля" style="text;html=1;align=center;verticalAlign=middle;whiteSpace=wrap;rounded=0;" vertex="1" parent="-rH5-VLzNjBN6RmqHpsX-10">
          <mxGeometry x="610" y="60" width="60" height="30" as="geometry" />
        </mxCell>
        <mxCell id="-rH5-VLzNjBN6RmqHpsX-49" value="Никнейм" style="text;html=1;align=center;verticalAlign=middle;whiteSpace=wrap;rounded=0;" vertex="1" parent="-rH5-VLzNjBN6RmqHpsX-10">
          <mxGeometry x="610" y="115" width="60" height="30" as="geometry" />
        </mxCell>
        <mxCell id="-rH5-VLzNjBN6RmqHpsX-52" value="Друзья" style="rounded=1;whiteSpace=wrap;html=1;fillColor=#0AEEFF;" vertex="1" parent="-rH5-VLzNjBN6RmqHpsX-10">
          <mxGeometry x="580" y="175" width="120" height="20" as="geometry" />
        </mxCell>
        <mxCell id="-rH5-VLzNjBN6RmqHpsX-53" value="Мои плейлисты" style="rounded=1;whiteSpace=wrap;html=1;fillColor=#0AEEFF;" vertex="1" parent="-rH5-VLzNjBN6RmqHpsX-10">
          <mxGeometry x="580" y="235" width="120" height="20" as="geometry" />
        </mxCell>
        <mxCell id="-rH5-VLzNjBN6RmqHpsX-54" value="Загрузить трек" style="rounded=1;whiteSpace=wrap;html=1;fillColor=#0AEEFF;" vertex="1" parent="-rH5-VLzNjBN6RmqHpsX-10">
          <mxGeometry x="580" y="265" width="120" height="20" as="geometry" />
        </mxCell>
        <mxCell id="-rH5-VLzNjBN6RmqHpsX-51" value="Мои аудиозаписи" style="rounded=1;whiteSpace=wrap;html=1;fillColor=#0AEEFF;" vertex="1" parent="-rH5-VLzNjBN6RmqHpsX-10">
          <mxGeometry x="580" y="205" width="120" height="20" as="geometry" />
        </mxCell>
        <mxCell id="-rH5-VLzNjBN6RmqHpsX-55" value="Настройки" style="rounded=1;whiteSpace=wrap;html=1;fillColor=#0AEEFF;" vertex="1" parent="-rH5-VLzNjBN6RmqHpsX-10">
          <mxGeometry x="580" y="295" width="120" height="20" as="geometry" />
        </mxCell>
        <mxCell id="-rH5-VLzNjBN6RmqHpsX-57" value="Обложка" style="whiteSpace=wrap;html=1;aspect=fixed;" vertex="1" parent="-rH5-VLzNjBN6RmqHpsX-10">
          <mxGeometry x="295" y="70" width="60" height="60" as="geometry" />
        </mxCell>
        <mxCell id="-rH5-VLzNjBN6RmqHpsX-58" value="Обложка" style="whiteSpace=wrap;html=1;aspect=fixed;" vertex="1" parent="-rH5-VLzNjBN6RmqHpsX-10">
          <mxGeometry x="295" y="170" width="60" height="60" as="geometry" />
        </mxCell>
        <mxCell id="-rH5-VLzNjBN6RmqHpsX-59" value="Обложка" style="whiteSpace=wrap;html=1;aspect=fixed;" vertex="1" parent="-rH5-VLzNjBN6RmqHpsX-10">
          <mxGeometry x="295" y="270" width="60" height="60" as="geometry" />
        </mxCell>
        <mxCell id="-rH5-VLzNjBN6RmqHpsX-60" value="Страница музыканта" style="rounded=1;whiteSpace=wrap;html=1;fillColor=#0AEEFF;" vertex="1" parent="-rH5-VLzNjBN6RmqHpsX-10">
          <mxGeometry x="580" y="145" width="120" height="20" as="geometry" />
        </mxCell>
        <mxCell id="-rH5-VLzNjBN6RmqHpsX-62" value="" style="ellipse;whiteSpace=wrap;html=1;aspect=fixed;fillColor=#0AEEFF;" vertex="1" parent="-rH5-VLzNjBN6RmqHpsX-10">
          <mxGeometry x="690" y="3" width="17" height="17" as="geometry" />
        </mxCell>
        <mxCell id="-rH5-VLzNjBN6RmqHpsX-63" value="никнейм" style="text;html=1;align=center;verticalAlign=middle;whiteSpace=wrap;rounded=0;" vertex="1" parent="-rH5-VLzNjBN6RmqHpsX-10">
          <mxGeometry x="642" y="2" width="41" height="19" as="geometry" />
        </mxCell>
        <mxCell id="-rH5-VLzNjBN6RmqHpsX-96" value="Выйти из аккаунта" style="rounded=1;whiteSpace=wrap;html=1;fillColor=#0AEEFF;" vertex="1" parent="-rH5-VLzNjBN6RmqHpsX-10">
          <mxGeometry x="580" y="326" width="120" height="20.5" as="geometry" />
        </mxCell>
        <mxCell id="-rH5-VLzNjBN6RmqHpsX-122" value="№1" style="text;html=1;align=center;verticalAlign=middle;whiteSpace=wrap;rounded=0;" vertex="1" parent="-rH5-VLzNjBN6RmqHpsX-10">
          <mxGeometry y="85" width="30" height="30" as="geometry" />
        </mxCell>
        <mxCell id="-rH5-VLzNjBN6RmqHpsX-123" value="№2" style="text;html=1;align=center;verticalAlign=middle;whiteSpace=wrap;rounded=0;" vertex="1" parent="-rH5-VLzNjBN6RmqHpsX-10">
          <mxGeometry y="180" width="30" height="30" as="geometry" />
        </mxCell>
        <mxCell id="-rH5-VLzNjBN6RmqHpsX-124" value="№3" style="text;html=1;align=center;verticalAlign=middle;whiteSpace=wrap;rounded=0;" vertex="1" parent="-rH5-VLzNjBN6RmqHpsX-10">
          <mxGeometry y="285" width="30" height="30" as="geometry" />
        </mxCell>
        <mxCell id="-rH5-VLzNjBN6RmqHpsX-228" value="уведомления" style="rounded=1;whiteSpace=wrap;html=1;fillColor=#0AEEFF;" vertex="1" parent="-rH5-VLzNjBN6RmqHpsX-10">
          <mxGeometry x="534" y="4" width="100" height="16" as="geometry" />
        </mxCell>
        <mxCell id="-rH5-VLzNjBN6RmqHpsX-41" value="крутой пользователь2" style="shape=umlActor;verticalLabelPosition=bottom;verticalAlign=top;html=1;outlineConnect=0;" vertex="1" parent="1">
          <mxGeometry x="198" y="1011" width="30" height="60" as="geometry" />
        </mxCell>
        <mxCell id="-rH5-VLzNjBN6RmqHpsX-42" value="согласен бро!" style="shape=callout;whiteSpace=wrap;html=1;perimeter=calloutPerimeter;" vertex="1" parent="1">
          <mxGeometry x="198" y="961" width="80" height="50" as="geometry" />
        </mxCell>
        <mxCell id="-rH5-VLzNjBN6RmqHpsX-93" value="" style="endArrow=classic;html=1;rounded=0;exitX=1;exitY=0.5;exitDx=0;exitDy=0;" edge="1" parent="1" source="-rH5-VLzNjBN6RmqHpsX-53">
          <mxGeometry width="50" height="50" relative="1" as="geometry">
            <mxPoint x="967" y="442" as="sourcePoint" />
            <mxPoint x="1113" y="577" as="targetPoint" />
          </mxGeometry>
        </mxCell>
        <mxCell id="-rH5-VLzNjBN6RmqHpsX-94" value="Ваш Список плейлистов" style="swimlane;whiteSpace=wrap;html=1;" vertex="1" parent="1">
          <mxGeometry x="1114" y="532" width="389" height="322" as="geometry">
            <mxRectangle x="928" y="457" width="171" height="26" as="alternateBounds" />
          </mxGeometry>
        </mxCell>
        <mxCell id="-rH5-VLzNjBN6RmqHpsX-98" value="" style="rounded=1;whiteSpace=wrap;html=1;" vertex="1" parent="-rH5-VLzNjBN6RmqHpsX-94">
          <mxGeometry x="16" y="37" width="186" height="60" as="geometry" />
        </mxCell>
        <mxCell id="-rH5-VLzNjBN6RmqHpsX-99" value="обложка" style="whiteSpace=wrap;html=1;aspect=fixed;" vertex="1" parent="-rH5-VLzNjBN6RmqHpsX-94">
          <mxGeometry x="23" y="43" width="48" height="48" as="geometry" />
        </mxCell>
        <mxCell id="-rH5-VLzNjBN6RmqHpsX-100" value="воспроизвести" style="rounded=1;whiteSpace=wrap;html=1;fillColor=#0AEEFF;" vertex="1" parent="-rH5-VLzNjBN6RmqHpsX-94">
          <mxGeometry x="87" y="71" width="90" height="20" as="geometry" />
        </mxCell>
        <mxCell id="-rH5-VLzNjBN6RmqHpsX-101" value="Название и прочая информация" style="text;html=1;align=center;verticalAlign=middle;whiteSpace=wrap;rounded=0;" vertex="1" parent="-rH5-VLzNjBN6RmqHpsX-94">
          <mxGeometry x="75" y="39" width="114" height="30" as="geometry" />
        </mxCell>
        <mxCell id="-rH5-VLzNjBN6RmqHpsX-102" value="" style="rounded=1;whiteSpace=wrap;html=1;" vertex="1" parent="-rH5-VLzNjBN6RmqHpsX-94">
          <mxGeometry x="16" y="107" width="186" height="60" as="geometry" />
        </mxCell>
        <mxCell id="-rH5-VLzNjBN6RmqHpsX-103" value="обложка" style="whiteSpace=wrap;html=1;aspect=fixed;" vertex="1" parent="-rH5-VLzNjBN6RmqHpsX-94">
          <mxGeometry x="23" y="113" width="48" height="48" as="geometry" />
        </mxCell>
        <mxCell id="-rH5-VLzNjBN6RmqHpsX-104" value="воспроизвести" style="rounded=1;whiteSpace=wrap;html=1;fillColor=#0AEEFF;" vertex="1" parent="-rH5-VLzNjBN6RmqHpsX-94">
          <mxGeometry x="87" y="141" width="90" height="20" as="geometry" />
        </mxCell>
        <mxCell id="-rH5-VLzNjBN6RmqHpsX-105" value="Название и прочая информация" style="text;html=1;align=center;verticalAlign=middle;whiteSpace=wrap;rounded=0;" vertex="1" parent="-rH5-VLzNjBN6RmqHpsX-94">
          <mxGeometry x="75" y="109" width="114" height="30" as="geometry" />
        </mxCell>
        <mxCell id="-rH5-VLzNjBN6RmqHpsX-111" value="" style="rounded=1;whiteSpace=wrap;html=1;" vertex="1" parent="-rH5-VLzNjBN6RmqHpsX-94">
          <mxGeometry x="16" y="177" width="186" height="60" as="geometry" />
        </mxCell>
        <mxCell id="-rH5-VLzNjBN6RmqHpsX-112" value="обложка" style="whiteSpace=wrap;html=1;aspect=fixed;" vertex="1" parent="-rH5-VLzNjBN6RmqHpsX-94">
          <mxGeometry x="23" y="183" width="48" height="48" as="geometry" />
        </mxCell>
        <mxCell id="-rH5-VLzNjBN6RmqHpsX-113" value="воспроизвести" style="rounded=1;whiteSpace=wrap;html=1;fillColor=#0AEEFF;" vertex="1" parent="-rH5-VLzNjBN6RmqHpsX-94">
          <mxGeometry x="87" y="211" width="90" height="20" as="geometry" />
        </mxCell>
        <mxCell id="-rH5-VLzNjBN6RmqHpsX-114" value="Название и прочая информация" style="text;html=1;align=center;verticalAlign=middle;whiteSpace=wrap;rounded=0;" vertex="1" parent="-rH5-VLzNjBN6RmqHpsX-94">
          <mxGeometry x="75" y="179" width="114" height="30" as="geometry" />
        </mxCell>
        <mxCell id="-rH5-VLzNjBN6RmqHpsX-115" value="" style="rounded=1;whiteSpace=wrap;html=1;" vertex="1" parent="-rH5-VLzNjBN6RmqHpsX-94">
          <mxGeometry x="16" y="246" width="186" height="60" as="geometry" />
        </mxCell>
        <mxCell id="-rH5-VLzNjBN6RmqHpsX-116" value="обложка" style="whiteSpace=wrap;html=1;aspect=fixed;" vertex="1" parent="-rH5-VLzNjBN6RmqHpsX-94">
          <mxGeometry x="23" y="252" width="48" height="48" as="geometry" />
        </mxCell>
        <mxCell id="-rH5-VLzNjBN6RmqHpsX-117" value="воспроизвести" style="rounded=1;whiteSpace=wrap;html=1;fillColor=#0AEEFF;" vertex="1" parent="-rH5-VLzNjBN6RmqHpsX-94">
          <mxGeometry x="87" y="280" width="90" height="20" as="geometry" />
        </mxCell>
        <mxCell id="-rH5-VLzNjBN6RmqHpsX-118" value="Название и прочая информация" style="text;html=1;align=center;verticalAlign=middle;whiteSpace=wrap;rounded=0;" vertex="1" parent="-rH5-VLzNjBN6RmqHpsX-94">
          <mxGeometry x="75" y="248" width="114" height="30" as="geometry" />
        </mxCell>
        <mxCell id="-rH5-VLzNjBN6RmqHpsX-119" value="Воспроизвести в случайном порядке" style="rounded=1;whiteSpace=wrap;html=1;fillColor=#0AEEFF;" vertex="1" parent="-rH5-VLzNjBN6RmqHpsX-94">
          <mxGeometry x="242" y="36" width="120" height="33" as="geometry" />
        </mxCell>
        <mxCell id="-rH5-VLzNjBN6RmqHpsX-120" value="Редактировать" style="rounded=1;whiteSpace=wrap;html=1;fillColor=#0AEEFF;" vertex="1" parent="-rH5-VLzNjBN6RmqHpsX-94">
          <mxGeometry x="242" y="76" width="120" height="33" as="geometry" />
        </mxCell>
        <mxCell id="-rH5-VLzNjBN6RmqHpsX-121" value="Создать плейлист" style="rounded=1;whiteSpace=wrap;html=1;fillColor=#0AEEFF;" vertex="1" parent="-rH5-VLzNjBN6RmqHpsX-94">
          <mxGeometry x="242" y="116" width="120" height="33" as="geometry" />
        </mxCell>
        <mxCell id="-rH5-VLzNjBN6RmqHpsX-95" value="*Все последующие окна будут открываться поверх главной страницы или заменяться если до этого было открыто другое окно*" style="text;html=1;align=center;verticalAlign=middle;whiteSpace=wrap;rounded=0;" vertex="1" parent="1">
          <mxGeometry x="768" y="141" width="198" height="30" as="geometry" />
        </mxCell>
        <mxCell id="-rH5-VLzNjBN6RmqHpsX-126" value="" style="endArrow=classic;html=1;rounded=0;exitX=1;exitY=0.5;exitDx=0;exitDy=0;" edge="1" parent="1" source="-rH5-VLzNjBN6RmqHpsX-121">
          <mxGeometry width="50" height="50" relative="1" as="geometry">
            <mxPoint x="1503" y="667" as="sourcePoint" />
            <mxPoint x="1681" y="605" as="targetPoint" />
          </mxGeometry>
        </mxCell>
        <mxCell id="-rH5-VLzNjBN6RmqHpsX-127" value="Создание нового плейлиста" style="swimlane;whiteSpace=wrap;html=1;" vertex="1" parent="1">
          <mxGeometry x="1682" y="532" width="200" height="190" as="geometry">
            <mxRectangle x="1496" y="457" width="191" height="26" as="alternateBounds" />
          </mxGeometry>
        </mxCell>
        <mxCell id="-rH5-VLzNjBN6RmqHpsX-128" value="Обложка" style="whiteSpace=wrap;html=1;aspect=fixed;fillColor=#0AEEFF;" vertex="1" parent="-rH5-VLzNjBN6RmqHpsX-127">
          <mxGeometry x="11" y="33" width="80" height="80" as="geometry" />
        </mxCell>
        <mxCell id="-rH5-VLzNjBN6RmqHpsX-135" value="название" style="rounded=1;whiteSpace=wrap;html=1;fillColor=#0AEEFF;" vertex="1" parent="-rH5-VLzNjBN6RmqHpsX-127">
          <mxGeometry x="102" y="33" width="90" height="25" as="geometry" />
        </mxCell>
        <mxCell id="-rH5-VLzNjBN6RmqHpsX-136" value="описание" style="rounded=1;whiteSpace=wrap;html=1;fillColor=#0AEEFF;" vertex="1" parent="-rH5-VLzNjBN6RmqHpsX-127">
          <mxGeometry x="102" y="67" width="90" height="46" as="geometry" />
        </mxCell>
        <mxCell id="-rH5-VLzNjBN6RmqHpsX-137" value="Добавить трек" style="rounded=1;whiteSpace=wrap;html=1;fillColor=#0AEEFF;" vertex="1" parent="-rH5-VLzNjBN6RmqHpsX-127">
          <mxGeometry x="11" y="122" width="109" height="33" as="geometry" />
        </mxCell>
        <mxCell id="-rH5-VLzNjBN6RmqHpsX-138" value="Предоставить доступ" style="rounded=1;whiteSpace=wrap;html=1;fillColor=#0AEEFF;" vertex="1" parent="-rH5-VLzNjBN6RmqHpsX-127">
          <mxGeometry x="12.5" y="163" width="175" height="20" as="geometry" />
        </mxCell>
        <mxCell id="-rH5-VLzNjBN6RmqHpsX-139" value="Предоставление доступа" style="swimlane;whiteSpace=wrap;html=1;" vertex="1" parent="1">
          <mxGeometry x="2032" y="525" width="220" height="311" as="geometry">
            <mxRectangle x="1846" y="450" width="176" height="26" as="alternateBounds" />
          </mxGeometry>
        </mxCell>
        <mxCell id="-rH5-VLzNjBN6RmqHpsX-141" value="Ваши друзья" style="text;html=1;align=center;verticalAlign=middle;whiteSpace=wrap;rounded=0;" vertex="1" parent="-rH5-VLzNjBN6RmqHpsX-139">
          <mxGeometry x="66.5" y="27" width="87" height="30" as="geometry" />
        </mxCell>
        <mxCell id="-rH5-VLzNjBN6RmqHpsX-146" value="" style="rounded=1;whiteSpace=wrap;html=1;" vertex="1" parent="-rH5-VLzNjBN6RmqHpsX-139">
          <mxGeometry x="7.5" y="57" width="202" height="60" as="geometry" />
        </mxCell>
        <mxCell id="-rH5-VLzNjBN6RmqHpsX-145" value="" style="ellipse;whiteSpace=wrap;html=1;aspect=fixed;" vertex="1" parent="-rH5-VLzNjBN6RmqHpsX-139">
          <mxGeometry x="12.5" y="64.5" width="45" height="45" as="geometry" />
        </mxCell>
        <mxCell id="-rH5-VLzNjBN6RmqHpsX-143" value="Аватар" style="text;html=1;align=center;verticalAlign=middle;whiteSpace=wrap;rounded=0;" vertex="1" parent="-rH5-VLzNjBN6RmqHpsX-139">
          <mxGeometry x="5" y="72" width="60" height="30" as="geometry" />
        </mxCell>
        <mxCell id="-rH5-VLzNjBN6RmqHpsX-144" value="Никнейм" style="text;html=1;align=center;verticalAlign=middle;whiteSpace=wrap;rounded=0;" vertex="1" parent="-rH5-VLzNjBN6RmqHpsX-139">
          <mxGeometry x="57.5" y="57" width="60" height="30" as="geometry" />
        </mxCell>
        <mxCell id="-rH5-VLzNjBN6RmqHpsX-147" value="добавить" style="rounded=1;whiteSpace=wrap;html=1;fillColor=#0AEEFF;" vertex="1" parent="-rH5-VLzNjBN6RmqHpsX-139">
          <mxGeometry x="114.5" y="93.5" width="88" height="16" as="geometry" />
        </mxCell>
        <mxCell id="-rH5-VLzNjBN6RmqHpsX-149" value="" style="rounded=1;whiteSpace=wrap;html=1;" vertex="1" parent="-rH5-VLzNjBN6RmqHpsX-139">
          <mxGeometry x="8.75" y="126" width="202" height="60" as="geometry" />
        </mxCell>
        <mxCell id="-rH5-VLzNjBN6RmqHpsX-150" value="" style="ellipse;whiteSpace=wrap;html=1;aspect=fixed;" vertex="1" parent="-rH5-VLzNjBN6RmqHpsX-139">
          <mxGeometry x="13.75" y="133.5" width="45" height="45" as="geometry" />
        </mxCell>
        <mxCell id="-rH5-VLzNjBN6RmqHpsX-151" value="Аватар" style="text;html=1;align=center;verticalAlign=middle;whiteSpace=wrap;rounded=0;" vertex="1" parent="-rH5-VLzNjBN6RmqHpsX-139">
          <mxGeometry x="6.25" y="141" width="60" height="30" as="geometry" />
        </mxCell>
        <mxCell id="-rH5-VLzNjBN6RmqHpsX-152" value="Никнейм" style="text;html=1;align=center;verticalAlign=middle;whiteSpace=wrap;rounded=0;" vertex="1" parent="-rH5-VLzNjBN6RmqHpsX-139">
          <mxGeometry x="58.75" y="126" width="60" height="30" as="geometry" />
        </mxCell>
        <mxCell id="-rH5-VLzNjBN6RmqHpsX-153" value="добавить" style="rounded=1;whiteSpace=wrap;html=1;fillColor=#0AEEFF;" vertex="1" parent="-rH5-VLzNjBN6RmqHpsX-139">
          <mxGeometry x="115.75" y="162.5" width="88" height="16" as="geometry" />
        </mxCell>
        <mxCell id="-rH5-VLzNjBN6RmqHpsX-154" value="" style="rounded=1;whiteSpace=wrap;html=1;" vertex="1" parent="-rH5-VLzNjBN6RmqHpsX-139">
          <mxGeometry x="8.75" y="194" width="202" height="60" as="geometry" />
        </mxCell>
        <mxCell id="-rH5-VLzNjBN6RmqHpsX-155" value="" style="ellipse;whiteSpace=wrap;html=1;aspect=fixed;" vertex="1" parent="-rH5-VLzNjBN6RmqHpsX-139">
          <mxGeometry x="13.75" y="201.5" width="45" height="45" as="geometry" />
        </mxCell>
        <mxCell id="-rH5-VLzNjBN6RmqHpsX-156" value="Аватар" style="text;html=1;align=center;verticalAlign=middle;whiteSpace=wrap;rounded=0;" vertex="1" parent="-rH5-VLzNjBN6RmqHpsX-139">
          <mxGeometry x="6.25" y="209" width="60" height="30" as="geometry" />
        </mxCell>
        <mxCell id="-rH5-VLzNjBN6RmqHpsX-157" value="Никнейм" style="text;html=1;align=center;verticalAlign=middle;whiteSpace=wrap;rounded=0;" vertex="1" parent="-rH5-VLzNjBN6RmqHpsX-139">
          <mxGeometry x="58.75" y="194" width="60" height="30" as="geometry" />
        </mxCell>
        <mxCell id="-rH5-VLzNjBN6RmqHpsX-158" value="добавить" style="rounded=1;whiteSpace=wrap;html=1;fillColor=#0AEEFF;" vertex="1" parent="-rH5-VLzNjBN6RmqHpsX-139">
          <mxGeometry x="115.75" y="230.5" width="88" height="16" as="geometry" />
        </mxCell>
        <mxCell id="-rH5-VLzNjBN6RmqHpsX-159" value="поле с ссылкой" style="rounded=0;whiteSpace=wrap;html=1;" vertex="1" parent="-rH5-VLzNjBN6RmqHpsX-139">
          <mxGeometry x="7.75" y="261" width="204" height="20" as="geometry" />
        </mxCell>
        <mxCell id="-rH5-VLzNjBN6RmqHpsX-160" value="Копировать" style="rounded=1;whiteSpace=wrap;html=1;fillColor=#0AEEFF;" vertex="1" parent="-rH5-VLzNjBN6RmqHpsX-139">
          <mxGeometry x="71" y="288" width="78" height="15" as="geometry" />
        </mxCell>
        <mxCell id="-rH5-VLzNjBN6RmqHpsX-161" value="" style="endArrow=classic;html=1;rounded=0;exitX=1;exitY=0.5;exitDx=0;exitDy=0;" edge="1" parent="1" source="-rH5-VLzNjBN6RmqHpsX-138">
          <mxGeometry width="50" height="50" relative="1" as="geometry">
            <mxPoint x="2136" y="675" as="sourcePoint" />
            <mxPoint x="2031" y="573" as="targetPoint" />
          </mxGeometry>
        </mxCell>
        <mxCell id="-rH5-VLzNjBN6RmqHpsX-177" value="Окно знакомств" style="swimlane;whiteSpace=wrap;html=1;" vertex="1" parent="1">
          <mxGeometry x="1123" y="91" width="594" height="333" as="geometry">
            <mxRectangle x="937" y="16" width="123" height="26" as="alternateBounds" />
          </mxGeometry>
        </mxCell>
        <mxCell id="-rH5-VLzNjBN6RmqHpsX-176" value="" style="rounded=1;whiteSpace=wrap;html=1;" vertex="1" parent="-rH5-VLzNjBN6RmqHpsX-177">
          <mxGeometry x="9.75" y="190" width="202" height="60" as="geometry" />
        </mxCell>
        <mxCell id="-rH5-VLzNjBN6RmqHpsX-162" value="" style="rounded=1;whiteSpace=wrap;html=1;" vertex="1" parent="-rH5-VLzNjBN6RmqHpsX-177">
          <mxGeometry x="9.75" y="53" width="202" height="60" as="geometry" />
        </mxCell>
        <mxCell id="-rH5-VLzNjBN6RmqHpsX-163" value="" style="ellipse;whiteSpace=wrap;html=1;aspect=fixed;" vertex="1" parent="-rH5-VLzNjBN6RmqHpsX-177">
          <mxGeometry x="14.75" y="60.5" width="45" height="45" as="geometry" />
        </mxCell>
        <mxCell id="-rH5-VLzNjBN6RmqHpsX-164" value="Аватар" style="text;html=1;align=center;verticalAlign=middle;whiteSpace=wrap;rounded=0;" vertex="1" parent="-rH5-VLzNjBN6RmqHpsX-177">
          <mxGeometry x="7.25" y="68" width="60" height="30" as="geometry" />
        </mxCell>
        <mxCell id="-rH5-VLzNjBN6RmqHpsX-165" value="Никнейм" style="text;html=1;align=center;verticalAlign=middle;whiteSpace=wrap;rounded=0;" vertex="1" parent="-rH5-VLzNjBN6RmqHpsX-177">
          <mxGeometry x="59.75" y="53" width="60" height="30" as="geometry" />
        </mxCell>
        <mxCell id="-rH5-VLzNjBN6RmqHpsX-166" value="написать" style="rounded=1;whiteSpace=wrap;html=1;fillColor=#0AEEFF;" vertex="1" parent="-rH5-VLzNjBN6RmqHpsX-177">
          <mxGeometry x="116.75" y="89.5" width="88" height="16" as="geometry" />
        </mxCell>
        <mxCell id="-rH5-VLzNjBN6RmqHpsX-167" value="" style="rounded=1;whiteSpace=wrap;html=1;" vertex="1" parent="-rH5-VLzNjBN6RmqHpsX-177">
          <mxGeometry x="9.75" y="122" width="202" height="60" as="geometry" />
        </mxCell>
        <mxCell id="-rH5-VLzNjBN6RmqHpsX-168" value="" style="ellipse;whiteSpace=wrap;html=1;aspect=fixed;" vertex="1" parent="-rH5-VLzNjBN6RmqHpsX-177">
          <mxGeometry x="14.75" y="129.5" width="45" height="45" as="geometry" />
        </mxCell>
        <mxCell id="-rH5-VLzNjBN6RmqHpsX-169" value="Аватар" style="text;html=1;align=center;verticalAlign=middle;whiteSpace=wrap;rounded=0;" vertex="1" parent="-rH5-VLzNjBN6RmqHpsX-177">
          <mxGeometry x="7.25" y="137" width="60" height="30" as="geometry" />
        </mxCell>
        <mxCell id="-rH5-VLzNjBN6RmqHpsX-170" value="Никнейм" style="text;html=1;align=center;verticalAlign=middle;whiteSpace=wrap;rounded=0;" vertex="1" parent="-rH5-VLzNjBN6RmqHpsX-177">
          <mxGeometry x="59.75" y="122" width="60" height="30" as="geometry" />
        </mxCell>
        <mxCell id="-rH5-VLzNjBN6RmqHpsX-171" value="написать" style="rounded=1;whiteSpace=wrap;html=1;fillColor=#0AEEFF;" vertex="1" parent="-rH5-VLzNjBN6RmqHpsX-177">
          <mxGeometry x="116.75" y="158.5" width="88" height="16" as="geometry" />
        </mxCell>
        <mxCell id="-rH5-VLzNjBN6RmqHpsX-172" value="" style="ellipse;whiteSpace=wrap;html=1;aspect=fixed;" vertex="1" parent="-rH5-VLzNjBN6RmqHpsX-177">
          <mxGeometry x="14.75" y="197.5" width="45" height="45" as="geometry" />
        </mxCell>
        <mxCell id="-rH5-VLzNjBN6RmqHpsX-173" value="Аватар" style="text;html=1;align=center;verticalAlign=middle;whiteSpace=wrap;rounded=0;" vertex="1" parent="-rH5-VLzNjBN6RmqHpsX-177">
          <mxGeometry x="7.25" y="205" width="60" height="30" as="geometry" />
        </mxCell>
        <mxCell id="-rH5-VLzNjBN6RmqHpsX-174" value="Никнейм" style="text;html=1;align=center;verticalAlign=middle;whiteSpace=wrap;rounded=0;" vertex="1" parent="-rH5-VLzNjBN6RmqHpsX-177">
          <mxGeometry x="59.75" y="190" width="60" height="30" as="geometry" />
        </mxCell>
        <mxCell id="-rH5-VLzNjBN6RmqHpsX-175" value="написать" style="rounded=1;whiteSpace=wrap;html=1;fillColor=#0AEEFF;" vertex="1" parent="-rH5-VLzNjBN6RmqHpsX-177">
          <mxGeometry x="116.75" y="226.5" width="88" height="16" as="geometry" />
        </mxCell>
        <mxCell id="-rH5-VLzNjBN6RmqHpsX-178" value="" style="rounded=1;whiteSpace=wrap;html=1;" vertex="1" parent="-rH5-VLzNjBN6RmqHpsX-177">
          <mxGeometry x="9.75" y="261" width="202" height="60" as="geometry" />
        </mxCell>
        <mxCell id="-rH5-VLzNjBN6RmqHpsX-179" value="" style="ellipse;whiteSpace=wrap;html=1;aspect=fixed;" vertex="1" parent="-rH5-VLzNjBN6RmqHpsX-177">
          <mxGeometry x="14.75" y="268.5" width="45" height="45" as="geometry" />
        </mxCell>
        <mxCell id="-rH5-VLzNjBN6RmqHpsX-180" value="Аватар" style="text;html=1;align=center;verticalAlign=middle;whiteSpace=wrap;rounded=0;" vertex="1" parent="-rH5-VLzNjBN6RmqHpsX-177">
          <mxGeometry x="7.25" y="276" width="60" height="30" as="geometry" />
        </mxCell>
        <mxCell id="-rH5-VLzNjBN6RmqHpsX-181" value="Никнейм" style="text;html=1;align=center;verticalAlign=middle;whiteSpace=wrap;rounded=0;" vertex="1" parent="-rH5-VLzNjBN6RmqHpsX-177">
          <mxGeometry x="59.75" y="261" width="60" height="30" as="geometry" />
        </mxCell>
        <mxCell id="-rH5-VLzNjBN6RmqHpsX-182" value="написать" style="rounded=1;whiteSpace=wrap;html=1;fillColor=#0AEEFF;" vertex="1" parent="-rH5-VLzNjBN6RmqHpsX-177">
          <mxGeometry x="116.75" y="297.5" width="88" height="16" as="geometry" />
        </mxCell>
        <mxCell id="-rH5-VLzNjBN6RmqHpsX-183" value="Ваши друзья" style="text;html=1;align=center;verticalAlign=middle;whiteSpace=wrap;rounded=0;" vertex="1" parent="-rH5-VLzNjBN6RmqHpsX-177">
          <mxGeometry x="77" y="23" width="83" height="30" as="geometry" />
        </mxCell>
        <mxCell id="-rH5-VLzNjBN6RmqHpsX-185" value="Возможно знакомы" style="text;html=1;align=center;verticalAlign=middle;whiteSpace=wrap;rounded=0;" vertex="1" parent="-rH5-VLzNjBN6RmqHpsX-177">
          <mxGeometry x="268" y="23" width="115" height="30" as="geometry" />
        </mxCell>
        <mxCell id="-rH5-VLzNjBN6RmqHpsX-196" value="" style="rounded=1;whiteSpace=wrap;html=1;" vertex="1" parent="-rH5-VLzNjBN6RmqHpsX-177">
          <mxGeometry x="225.75" y="121" width="202" height="60" as="geometry" />
        </mxCell>
        <mxCell id="-rH5-VLzNjBN6RmqHpsX-202" value="" style="rounded=1;whiteSpace=wrap;html=1;" vertex="1" parent="-rH5-VLzNjBN6RmqHpsX-177">
          <mxGeometry x="225.75" y="53" width="202" height="60" as="geometry" />
        </mxCell>
        <mxCell id="-rH5-VLzNjBN6RmqHpsX-203" value="" style="ellipse;whiteSpace=wrap;html=1;aspect=fixed;" vertex="1" parent="-rH5-VLzNjBN6RmqHpsX-177">
          <mxGeometry x="230.75" y="60.5" width="45" height="45" as="geometry" />
        </mxCell>
        <mxCell id="-rH5-VLzNjBN6RmqHpsX-204" value="Аватар" style="text;html=1;align=center;verticalAlign=middle;whiteSpace=wrap;rounded=0;" vertex="1" parent="-rH5-VLzNjBN6RmqHpsX-177">
          <mxGeometry x="223.25" y="68" width="60" height="30" as="geometry" />
        </mxCell>
        <mxCell id="-rH5-VLzNjBN6RmqHpsX-205" value="Никнейм" style="text;html=1;align=center;verticalAlign=middle;whiteSpace=wrap;rounded=0;" vertex="1" parent="-rH5-VLzNjBN6RmqHpsX-177">
          <mxGeometry x="275.75" y="53" width="60" height="30" as="geometry" />
        </mxCell>
        <mxCell id="-rH5-VLzNjBN6RmqHpsX-206" value="написать" style="rounded=1;whiteSpace=wrap;html=1;fillColor=#0AEEFF;" vertex="1" parent="-rH5-VLzNjBN6RmqHpsX-177">
          <mxGeometry x="332.75" y="89.5" width="88" height="16" as="geometry" />
        </mxCell>
        <mxCell id="-rH5-VLzNjBN6RmqHpsX-207" value="" style="ellipse;whiteSpace=wrap;html=1;aspect=fixed;" vertex="1" parent="-rH5-VLzNjBN6RmqHpsX-177">
          <mxGeometry x="230.75" y="128.5" width="45" height="45" as="geometry" />
        </mxCell>
        <mxCell id="-rH5-VLzNjBN6RmqHpsX-208" value="Аватар" style="text;html=1;align=center;verticalAlign=middle;whiteSpace=wrap;rounded=0;" vertex="1" parent="-rH5-VLzNjBN6RmqHpsX-177">
          <mxGeometry x="223.25" y="136" width="60" height="30" as="geometry" />
        </mxCell>
        <mxCell id="-rH5-VLzNjBN6RmqHpsX-209" value="Никнейм" style="text;html=1;align=center;verticalAlign=middle;whiteSpace=wrap;rounded=0;" vertex="1" parent="-rH5-VLzNjBN6RmqHpsX-177">
          <mxGeometry x="275.75" y="121" width="60" height="30" as="geometry" />
        </mxCell>
        <mxCell id="-rH5-VLzNjBN6RmqHpsX-210" value="написать" style="rounded=1;whiteSpace=wrap;html=1;fillColor=#0AEEFF;" vertex="1" parent="-rH5-VLzNjBN6RmqHpsX-177">
          <mxGeometry x="332.75" y="157.5" width="88" height="16" as="geometry" />
        </mxCell>
        <mxCell id="-rH5-VLzNjBN6RmqHpsX-211" value="" style="rounded=1;whiteSpace=wrap;html=1;" vertex="1" parent="-rH5-VLzNjBN6RmqHpsX-177">
          <mxGeometry x="225.75" y="192" width="202" height="60" as="geometry" />
        </mxCell>
        <mxCell id="-rH5-VLzNjBN6RmqHpsX-212" value="" style="ellipse;whiteSpace=wrap;html=1;aspect=fixed;" vertex="1" parent="-rH5-VLzNjBN6RmqHpsX-177">
          <mxGeometry x="230.75" y="199.5" width="45" height="45" as="geometry" />
        </mxCell>
        <mxCell id="-rH5-VLzNjBN6RmqHpsX-213" value="Аватар" style="text;html=1;align=center;verticalAlign=middle;whiteSpace=wrap;rounded=0;" vertex="1" parent="-rH5-VLzNjBN6RmqHpsX-177">
          <mxGeometry x="223.25" y="207" width="60" height="30" as="geometry" />
        </mxCell>
        <mxCell id="-rH5-VLzNjBN6RmqHpsX-214" value="Никнейм" style="text;html=1;align=center;verticalAlign=middle;whiteSpace=wrap;rounded=0;" vertex="1" parent="-rH5-VLzNjBN6RmqHpsX-177">
          <mxGeometry x="275.75" y="192" width="60" height="30" as="geometry" />
        </mxCell>
        <mxCell id="-rH5-VLzNjBN6RmqHpsX-215" value="написать" style="rounded=1;whiteSpace=wrap;html=1;fillColor=#0AEEFF;" vertex="1" parent="-rH5-VLzNjBN6RmqHpsX-177">
          <mxGeometry x="332.75" y="228.5" width="88" height="16" as="geometry" />
        </mxCell>
        <mxCell id="-rH5-VLzNjBN6RmqHpsX-216" value="Поиск по нику" style="rounded=1;whiteSpace=wrap;html=1;fillColor=#0AEEFF;" vertex="1" parent="-rH5-VLzNjBN6RmqHpsX-177">
          <mxGeometry x="454" y="32" width="131" height="18.5" as="geometry" />
        </mxCell>
        <mxCell id="-rH5-VLzNjBN6RmqHpsX-217" value="фильтры" style="rounded=1;whiteSpace=wrap;html=1;fillColor=#0AEEFF;" vertex="1" parent="-rH5-VLzNjBN6RmqHpsX-177">
          <mxGeometry x="522.5" y="56" width="62.5" height="16.5" as="geometry" />
        </mxCell>
        <mxCell id="-rH5-VLzNjBN6RmqHpsX-218" value="" style="endArrow=classic;html=1;rounded=0;exitX=1;exitY=0.5;exitDx=0;exitDy=0;" edge="1" parent="1" source="-rH5-VLzNjBN6RmqHpsX-52">
          <mxGeometry width="50" height="50" relative="1" as="geometry">
            <mxPoint x="972" y="382" as="sourcePoint" />
            <mxPoint x="1122" y="248" as="targetPoint" />
          </mxGeometry>
        </mxCell>
        <mxCell id="-rH5-VLzNjBN6RmqHpsX-219" value="Поиск пользователей" style="swimlane;whiteSpace=wrap;html=1;" vertex="1" parent="1">
          <mxGeometry x="1915" y="91" width="235" height="125" as="geometry" />
        </mxCell>
        <mxCell id="-rH5-VLzNjBN6RmqHpsX-220" value="Поиск по нику" style="rounded=1;whiteSpace=wrap;html=1;fillColor=#0AEEFF;" vertex="1" parent="-rH5-VLzNjBN6RmqHpsX-219">
          <mxGeometry x="9" y="29.5" width="131" height="18.5" as="geometry" />
        </mxCell>
        <mxCell id="-rH5-VLzNjBN6RmqHpsX-221" value="" style="rounded=1;whiteSpace=wrap;html=1;" vertex="1" parent="-rH5-VLzNjBN6RmqHpsX-219">
          <mxGeometry x="8.5" y="57.5" width="215.5" height="60" as="geometry" />
        </mxCell>
        <mxCell id="-rH5-VLzNjBN6RmqHpsX-222" value="" style="ellipse;whiteSpace=wrap;html=1;aspect=fixed;" vertex="1" parent="-rH5-VLzNjBN6RmqHpsX-219">
          <mxGeometry x="13.5" y="65" width="45" height="45" as="geometry" />
        </mxCell>
        <mxCell id="-rH5-VLzNjBN6RmqHpsX-223" value="Аватар" style="text;html=1;align=center;verticalAlign=middle;whiteSpace=wrap;rounded=0;" vertex="1" parent="-rH5-VLzNjBN6RmqHpsX-219">
          <mxGeometry x="6" y="72.5" width="60" height="30" as="geometry" />
        </mxCell>
        <mxCell id="-rH5-VLzNjBN6RmqHpsX-224" value="Никнейм" style="text;html=1;align=center;verticalAlign=middle;whiteSpace=wrap;rounded=0;" vertex="1" parent="-rH5-VLzNjBN6RmqHpsX-219">
          <mxGeometry x="58.5" y="57.5" width="60" height="30" as="geometry" />
        </mxCell>
        <mxCell id="-rH5-VLzNjBN6RmqHpsX-225" value="добавить" style="rounded=1;whiteSpace=wrap;html=1;fillColor=#0AEEFF;" vertex="1" parent="-rH5-VLzNjBN6RmqHpsX-219">
          <mxGeometry x="66" y="95.5" width="88" height="16" as="geometry" />
        </mxCell>
        <mxCell id="-rH5-VLzNjBN6RmqHpsX-226" value="написать" style="rounded=1;whiteSpace=wrap;html=1;fillColor=#0AEEFF;" vertex="1" parent="-rH5-VLzNjBN6RmqHpsX-219">
          <mxGeometry x="163" y="94" width="55" height="19" as="geometry" />
        </mxCell>
        <mxCell id="-rH5-VLzNjBN6RmqHpsX-227" value="" style="endArrow=classic;html=1;rounded=0;exitX=1;exitY=0.5;exitDx=0;exitDy=0;entryX=0;entryY=0.5;entryDx=0;entryDy=0;" edge="1" parent="1" source="-rH5-VLzNjBN6RmqHpsX-216" target="-rH5-VLzNjBN6RmqHpsX-219">
          <mxGeometry width="50" height="50" relative="1" as="geometry">
            <mxPoint x="1735" y="149" as="sourcePoint" />
            <mxPoint x="1785" y="99" as="targetPoint" />
          </mxGeometry>
        </mxCell>
        <mxCell id="-rH5-VLzNjBN6RmqHpsX-229" value="" style="endArrow=classic;startArrow=classic;html=1;rounded=0;" edge="1" parent="1">
          <mxGeometry width="50" height="50" relative="1" as="geometry">
            <mxPoint x="104" y="1041.5" as="sourcePoint" />
            <mxPoint x="185" y="1040.5" as="targetPoint" />
          </mxGeometry>
        </mxCell>
        <mxCell id="-rH5-VLzNjBN6RmqHpsX-230" value="Actor1" style="shape=umlActor;verticalLabelPosition=bottom;verticalAlign=top;html=1;outlineConnect=0;" vertex="1" parent="1">
          <mxGeometry x="209" y="476" width="30" height="60" as="geometry" />
        </mxCell>
        <mxCell id="-rH5-VLzNjBN6RmqHpsX-233" value="" style="shape=flexArrow;endArrow=classic;html=1;rounded=0;" edge="1" parent="1">
          <mxGeometry width="50" height="50" relative="1" as="geometry">
            <mxPoint x="2112" y="221" as="sourcePoint" />
            <mxPoint x="2181" y="327" as="targetPoint" />
          </mxGeometry>
        </mxCell>
        <mxCell id="-rH5-VLzNjBN6RmqHpsX-269" value="Главная страница" style="swimlane;whiteSpace=wrap;html=1;fillColor=#FFFFFF;" vertex="1" parent="1">
          <mxGeometry x="2236" y="49" width="710" height="360" as="geometry" />
        </mxCell>
        <mxCell id="-rH5-VLzNjBN6RmqHpsX-270" value="" style="rounded=1;whiteSpace=wrap;html=1;" vertex="1" parent="-rH5-VLzNjBN6RmqHpsX-269">
          <mxGeometry x="30" y="60" width="340" height="80" as="geometry" />
        </mxCell>
        <mxCell id="-rH5-VLzNjBN6RmqHpsX-271" value="Лого" style="text;html=1;align=center;verticalAlign=middle;whiteSpace=wrap;rounded=0;" vertex="1" parent="-rH5-VLzNjBN6RmqHpsX-269">
          <mxGeometry y="-3.5" width="60" height="30" as="geometry" />
        </mxCell>
        <mxCell id="-rH5-VLzNjBN6RmqHpsX-272" value="воспроизвести" style="rounded=1;whiteSpace=wrap;html=1;fillColor=#0AEEFF;" vertex="1" parent="-rH5-VLzNjBN6RmqHpsX-269">
          <mxGeometry x="40" y="110" width="90" height="20" as="geometry" />
        </mxCell>
        <mxCell id="-rH5-VLzNjBN6RmqHpsX-273" value="добавить в избранное" style="rounded=1;whiteSpace=wrap;html=1;fillColor=#0AEEFF;" vertex="1" parent="-rH5-VLzNjBN6RmqHpsX-269">
          <mxGeometry x="140" y="110" width="130" height="20" as="geometry" />
        </mxCell>
        <mxCell id="-rH5-VLzNjBN6RmqHpsX-274" value="Трек (название и автор)" style="text;html=1;align=center;verticalAlign=middle;whiteSpace=wrap;rounded=0;" vertex="1" parent="-rH5-VLzNjBN6RmqHpsX-269">
          <mxGeometry x="40" y="70" width="150" height="30" as="geometry" />
        </mxCell>
        <mxCell id="-rH5-VLzNjBN6RmqHpsX-275" value="Список хитов месяца" style="text;html=1;align=center;verticalAlign=middle;whiteSpace=wrap;rounded=0;" vertex="1" parent="-rH5-VLzNjBN6RmqHpsX-269">
          <mxGeometry x="5" y="30" width="180" height="30" as="geometry" />
        </mxCell>
        <mxCell id="-rH5-VLzNjBN6RmqHpsX-276" value="" style="rounded=1;whiteSpace=wrap;html=1;" vertex="1" parent="-rH5-VLzNjBN6RmqHpsX-269">
          <mxGeometry x="30" y="160" width="340" height="80" as="geometry" />
        </mxCell>
        <mxCell id="-rH5-VLzNjBN6RmqHpsX-277" value="воспроизвести" style="rounded=1;whiteSpace=wrap;html=1;fillColor=#0AEEFF;" vertex="1" parent="-rH5-VLzNjBN6RmqHpsX-269">
          <mxGeometry x="40" y="210" width="90" height="20" as="geometry" />
        </mxCell>
        <mxCell id="-rH5-VLzNjBN6RmqHpsX-278" value="добавить в избранное" style="rounded=1;whiteSpace=wrap;html=1;fillColor=#0AEEFF;" vertex="1" parent="-rH5-VLzNjBN6RmqHpsX-269">
          <mxGeometry x="140" y="210" width="130" height="20" as="geometry" />
        </mxCell>
        <mxCell id="-rH5-VLzNjBN6RmqHpsX-279" value="Трек (название и автор)" style="text;html=1;align=center;verticalAlign=middle;whiteSpace=wrap;rounded=0;" vertex="1" parent="-rH5-VLzNjBN6RmqHpsX-269">
          <mxGeometry x="40" y="170" width="150" height="30" as="geometry" />
        </mxCell>
        <mxCell id="-rH5-VLzNjBN6RmqHpsX-280" value="" style="rounded=1;whiteSpace=wrap;html=1;" vertex="1" parent="-rH5-VLzNjBN6RmqHpsX-269">
          <mxGeometry x="30" y="260" width="340" height="80" as="geometry" />
        </mxCell>
        <mxCell id="-rH5-VLzNjBN6RmqHpsX-281" value="воспроизвести" style="rounded=1;whiteSpace=wrap;html=1;fillColor=#0AEEFF;" vertex="1" parent="-rH5-VLzNjBN6RmqHpsX-269">
          <mxGeometry x="40" y="310" width="90" height="20" as="geometry" />
        </mxCell>
        <mxCell id="-rH5-VLzNjBN6RmqHpsX-282" value="добавить в избранное" style="rounded=1;whiteSpace=wrap;html=1;fillColor=#0AEEFF;" vertex="1" parent="-rH5-VLzNjBN6RmqHpsX-269">
          <mxGeometry x="140" y="310" width="130" height="20" as="geometry" />
        </mxCell>
        <mxCell id="-rH5-VLzNjBN6RmqHpsX-283" value="Трек (название и автор)" style="text;html=1;align=center;verticalAlign=middle;whiteSpace=wrap;rounded=0;" vertex="1" parent="-rH5-VLzNjBN6RmqHpsX-269">
          <mxGeometry x="40" y="270" width="150" height="30" as="geometry" />
        </mxCell>
        <mxCell id="-rH5-VLzNjBN6RmqHpsX-292" value="Обложка" style="whiteSpace=wrap;html=1;aspect=fixed;" vertex="1" parent="-rH5-VLzNjBN6RmqHpsX-269">
          <mxGeometry x="295" y="70" width="60" height="60" as="geometry" />
        </mxCell>
        <mxCell id="-rH5-VLzNjBN6RmqHpsX-293" value="Обложка" style="whiteSpace=wrap;html=1;aspect=fixed;" vertex="1" parent="-rH5-VLzNjBN6RmqHpsX-269">
          <mxGeometry x="295" y="170" width="60" height="60" as="geometry" />
        </mxCell>
        <mxCell id="-rH5-VLzNjBN6RmqHpsX-294" value="Обложка" style="whiteSpace=wrap;html=1;aspect=fixed;" vertex="1" parent="-rH5-VLzNjBN6RmqHpsX-269">
          <mxGeometry x="295" y="270" width="60" height="60" as="geometry" />
        </mxCell>
        <mxCell id="-rH5-VLzNjBN6RmqHpsX-296" value="" style="ellipse;whiteSpace=wrap;html=1;aspect=fixed;fillColor=#0AEEFF;" vertex="1" parent="-rH5-VLzNjBN6RmqHpsX-269">
          <mxGeometry x="690" y="3" width="17" height="17" as="geometry" />
        </mxCell>
        <mxCell id="-rH5-VLzNjBN6RmqHpsX-297" value="никнейм" style="text;html=1;align=center;verticalAlign=middle;whiteSpace=wrap;rounded=0;" vertex="1" parent="-rH5-VLzNjBN6RmqHpsX-269">
          <mxGeometry x="642" y="2" width="41" height="19" as="geometry" />
        </mxCell>
        <mxCell id="-rH5-VLzNjBN6RmqHpsX-299" value="№1" style="text;html=1;align=center;verticalAlign=middle;whiteSpace=wrap;rounded=0;" vertex="1" parent="-rH5-VLzNjBN6RmqHpsX-269">
          <mxGeometry y="85" width="30" height="30" as="geometry" />
        </mxCell>
        <mxCell id="-rH5-VLzNjBN6RmqHpsX-300" value="№2" style="text;html=1;align=center;verticalAlign=middle;whiteSpace=wrap;rounded=0;" vertex="1" parent="-rH5-VLzNjBN6RmqHpsX-269">
          <mxGeometry y="180" width="30" height="30" as="geometry" />
        </mxCell>
        <mxCell id="-rH5-VLzNjBN6RmqHpsX-301" value="№3" style="text;html=1;align=center;verticalAlign=middle;whiteSpace=wrap;rounded=0;" vertex="1" parent="-rH5-VLzNjBN6RmqHpsX-269">
          <mxGeometry y="285" width="30" height="30" as="geometry" />
        </mxCell>
        <mxCell id="-rH5-VLzNjBN6RmqHpsX-302" value="уведомления" style="rounded=1;whiteSpace=wrap;html=1;fillColor=#0AEEFF;" vertex="1" parent="-rH5-VLzNjBN6RmqHpsX-269">
          <mxGeometry x="534" y="4" width="100" height="16" as="geometry" />
        </mxCell>
        <mxCell id="-rH5-VLzNjBN6RmqHpsX-304" value="" style="rounded=1;whiteSpace=wrap;html=1;" vertex="1" parent="-rH5-VLzNjBN6RmqHpsX-269">
          <mxGeometry x="553" y="266" width="146" height="84" as="geometry" />
        </mxCell>
        <mxCell id="-rH5-VLzNjBN6RmqHpsX-305" value="Уведомление о приглашении в друзья" style="text;html=1;align=center;verticalAlign=middle;whiteSpace=wrap;rounded=0;" vertex="1" parent="-rH5-VLzNjBN6RmqHpsX-269">
          <mxGeometry x="554" y="266" width="145" height="30" as="geometry" />
        </mxCell>
        <mxCell id="-rH5-VLzNjBN6RmqHpsX-306" value="посмотреть" style="rounded=1;whiteSpace=wrap;html=1;fillColor=#0AEEFF;" vertex="1" parent="-rH5-VLzNjBN6RmqHpsX-269">
          <mxGeometry x="590" y="300" width="72" height="19" as="geometry" />
        </mxCell>
        <mxCell id="-rH5-VLzNjBN6RmqHpsX-308" value="принять" style="rounded=1;whiteSpace=wrap;html=1;fillColor=#0AEEFF;" vertex="1" parent="-rH5-VLzNjBN6RmqHpsX-269">
          <mxGeometry x="560.5" y="327" width="64.5" height="18" as="geometry" />
        </mxCell>
        <mxCell id="-rH5-VLzNjBN6RmqHpsX-307" value="отклонить" style="rounded=1;whiteSpace=wrap;html=1;fillColor=#0AEEFF;" vertex="1" parent="-rH5-VLzNjBN6RmqHpsX-269">
          <mxGeometry x="631" y="327" width="63" height="18" as="geometry" />
        </mxCell>
        <mxCell id="-rH5-VLzNjBN6RmqHpsX-303" value="Actor2" style="shape=umlActor;verticalLabelPosition=bottom;verticalAlign=top;html=1;outlineConnect=0;" vertex="1" parent="1">
          <mxGeometry x="2189" y="330" width="30" height="60" as="geometry" />
        </mxCell>
        <mxCell id="-rH5-VLzNjBN6RmqHpsX-339" value="Главная страница" style="swimlane;whiteSpace=wrap;html=1;fillColor=#FFFFFF;" vertex="1" parent="1">
          <mxGeometry x="2451" y="601" width="710" height="360" as="geometry" />
        </mxCell>
        <mxCell id="-rH5-VLzNjBN6RmqHpsX-340" value="" style="rounded=1;whiteSpace=wrap;html=1;" vertex="1" parent="-rH5-VLzNjBN6RmqHpsX-339">
          <mxGeometry x="30" y="60" width="340" height="80" as="geometry" />
        </mxCell>
        <mxCell id="-rH5-VLzNjBN6RmqHpsX-341" value="Лого" style="text;html=1;align=center;verticalAlign=middle;whiteSpace=wrap;rounded=0;" vertex="1" parent="-rH5-VLzNjBN6RmqHpsX-339">
          <mxGeometry y="-3.5" width="60" height="30" as="geometry" />
        </mxCell>
        <mxCell id="-rH5-VLzNjBN6RmqHpsX-342" value="воспроизвести" style="rounded=1;whiteSpace=wrap;html=1;fillColor=#0AEEFF;" vertex="1" parent="-rH5-VLzNjBN6RmqHpsX-339">
          <mxGeometry x="40" y="110" width="90" height="20" as="geometry" />
        </mxCell>
        <mxCell id="-rH5-VLzNjBN6RmqHpsX-343" value="добавить в избранное" style="rounded=1;whiteSpace=wrap;html=1;fillColor=#0AEEFF;" vertex="1" parent="-rH5-VLzNjBN6RmqHpsX-339">
          <mxGeometry x="140" y="110" width="130" height="20" as="geometry" />
        </mxCell>
        <mxCell id="-rH5-VLzNjBN6RmqHpsX-344" value="Трек (название и автор)" style="text;html=1;align=center;verticalAlign=middle;whiteSpace=wrap;rounded=0;" vertex="1" parent="-rH5-VLzNjBN6RmqHpsX-339">
          <mxGeometry x="40" y="70" width="150" height="30" as="geometry" />
        </mxCell>
        <mxCell id="-rH5-VLzNjBN6RmqHpsX-345" value="Список хитов месяца" style="text;html=1;align=center;verticalAlign=middle;whiteSpace=wrap;rounded=0;" vertex="1" parent="-rH5-VLzNjBN6RmqHpsX-339">
          <mxGeometry x="5" y="30" width="180" height="30" as="geometry" />
        </mxCell>
        <mxCell id="-rH5-VLzNjBN6RmqHpsX-346" value="" style="rounded=1;whiteSpace=wrap;html=1;" vertex="1" parent="-rH5-VLzNjBN6RmqHpsX-339">
          <mxGeometry x="30" y="160" width="340" height="80" as="geometry" />
        </mxCell>
        <mxCell id="-rH5-VLzNjBN6RmqHpsX-347" value="воспроизвести" style="rounded=1;whiteSpace=wrap;html=1;fillColor=#0AEEFF;" vertex="1" parent="-rH5-VLzNjBN6RmqHpsX-339">
          <mxGeometry x="40" y="210" width="90" height="20" as="geometry" />
        </mxCell>
        <mxCell id="-rH5-VLzNjBN6RmqHpsX-348" value="добавить в избранное" style="rounded=1;whiteSpace=wrap;html=1;fillColor=#0AEEFF;" vertex="1" parent="-rH5-VLzNjBN6RmqHpsX-339">
          <mxGeometry x="140" y="210" width="130" height="20" as="geometry" />
        </mxCell>
        <mxCell id="-rH5-VLzNjBN6RmqHpsX-349" value="Трек (название и автор)" style="text;html=1;align=center;verticalAlign=middle;whiteSpace=wrap;rounded=0;" vertex="1" parent="-rH5-VLzNjBN6RmqHpsX-339">
          <mxGeometry x="40" y="170" width="150" height="30" as="geometry" />
        </mxCell>
        <mxCell id="-rH5-VLzNjBN6RmqHpsX-350" value="" style="rounded=1;whiteSpace=wrap;html=1;" vertex="1" parent="-rH5-VLzNjBN6RmqHpsX-339">
          <mxGeometry x="30" y="260" width="340" height="80" as="geometry" />
        </mxCell>
        <mxCell id="-rH5-VLzNjBN6RmqHpsX-351" value="воспроизвести" style="rounded=1;whiteSpace=wrap;html=1;fillColor=#0AEEFF;" vertex="1" parent="-rH5-VLzNjBN6RmqHpsX-339">
          <mxGeometry x="40" y="310" width="90" height="20" as="geometry" />
        </mxCell>
        <mxCell id="-rH5-VLzNjBN6RmqHpsX-352" value="добавить в избранное" style="rounded=1;whiteSpace=wrap;html=1;fillColor=#0AEEFF;" vertex="1" parent="-rH5-VLzNjBN6RmqHpsX-339">
          <mxGeometry x="140" y="310" width="130" height="20" as="geometry" />
        </mxCell>
        <mxCell id="-rH5-VLzNjBN6RmqHpsX-353" value="Трек (название и автор)" style="text;html=1;align=center;verticalAlign=middle;whiteSpace=wrap;rounded=0;" vertex="1" parent="-rH5-VLzNjBN6RmqHpsX-339">
          <mxGeometry x="40" y="270" width="150" height="30" as="geometry" />
        </mxCell>
        <mxCell id="-rH5-VLzNjBN6RmqHpsX-354" value="Обложка" style="whiteSpace=wrap;html=1;aspect=fixed;" vertex="1" parent="-rH5-VLzNjBN6RmqHpsX-339">
          <mxGeometry x="295" y="70" width="60" height="60" as="geometry" />
        </mxCell>
        <mxCell id="-rH5-VLzNjBN6RmqHpsX-355" value="Обложка" style="whiteSpace=wrap;html=1;aspect=fixed;" vertex="1" parent="-rH5-VLzNjBN6RmqHpsX-339">
          <mxGeometry x="295" y="170" width="60" height="60" as="geometry" />
        </mxCell>
        <mxCell id="-rH5-VLzNjBN6RmqHpsX-356" value="Обложка" style="whiteSpace=wrap;html=1;aspect=fixed;" vertex="1" parent="-rH5-VLzNjBN6RmqHpsX-339">
          <mxGeometry x="295" y="270" width="60" height="60" as="geometry" />
        </mxCell>
        <mxCell id="-rH5-VLzNjBN6RmqHpsX-357" value="" style="ellipse;whiteSpace=wrap;html=1;aspect=fixed;fillColor=#0AEEFF;" vertex="1" parent="-rH5-VLzNjBN6RmqHpsX-339">
          <mxGeometry x="690" y="3" width="17" height="17" as="geometry" />
        </mxCell>
        <mxCell id="-rH5-VLzNjBN6RmqHpsX-358" value="никнейм" style="text;html=1;align=center;verticalAlign=middle;whiteSpace=wrap;rounded=0;" vertex="1" parent="-rH5-VLzNjBN6RmqHpsX-339">
          <mxGeometry x="642" y="2" width="41" height="19" as="geometry" />
        </mxCell>
        <mxCell id="-rH5-VLzNjBN6RmqHpsX-359" value="№1" style="text;html=1;align=center;verticalAlign=middle;whiteSpace=wrap;rounded=0;" vertex="1" parent="-rH5-VLzNjBN6RmqHpsX-339">
          <mxGeometry y="85" width="30" height="30" as="geometry" />
        </mxCell>
        <mxCell id="-rH5-VLzNjBN6RmqHpsX-360" value="№2" style="text;html=1;align=center;verticalAlign=middle;whiteSpace=wrap;rounded=0;" vertex="1" parent="-rH5-VLzNjBN6RmqHpsX-339">
          <mxGeometry y="180" width="30" height="30" as="geometry" />
        </mxCell>
        <mxCell id="-rH5-VLzNjBN6RmqHpsX-361" value="№3" style="text;html=1;align=center;verticalAlign=middle;whiteSpace=wrap;rounded=0;" vertex="1" parent="-rH5-VLzNjBN6RmqHpsX-339">
          <mxGeometry y="285" width="30" height="30" as="geometry" />
        </mxCell>
        <mxCell id="-rH5-VLzNjBN6RmqHpsX-362" value="уведомления" style="rounded=1;whiteSpace=wrap;html=1;fillColor=#0AEEFF;" vertex="1" parent="-rH5-VLzNjBN6RmqHpsX-339">
          <mxGeometry x="534" y="4" width="100" height="16" as="geometry" />
        </mxCell>
        <mxCell id="-rH5-VLzNjBN6RmqHpsX-363" value="" style="rounded=1;whiteSpace=wrap;html=1;" vertex="1" parent="-rH5-VLzNjBN6RmqHpsX-339">
          <mxGeometry x="553" y="266" width="146" height="84" as="geometry" />
        </mxCell>
        <mxCell id="-rH5-VLzNjBN6RmqHpsX-364" value="Уведомление о предоставлении доступа" style="text;html=1;align=center;verticalAlign=middle;whiteSpace=wrap;rounded=0;" vertex="1" parent="-rH5-VLzNjBN6RmqHpsX-339">
          <mxGeometry x="554" y="266" width="145" height="30" as="geometry" />
        </mxCell>
        <mxCell id="-rH5-VLzNjBN6RmqHpsX-365" value="посмотреть" style="rounded=1;whiteSpace=wrap;html=1;fillColor=#0AEEFF;" vertex="1" parent="-rH5-VLzNjBN6RmqHpsX-339">
          <mxGeometry x="590" y="300" width="72" height="19" as="geometry" />
        </mxCell>
        <mxCell id="-rH5-VLzNjBN6RmqHpsX-366" value="принять" style="rounded=1;whiteSpace=wrap;html=1;fillColor=#0AEEFF;" vertex="1" parent="-rH5-VLzNjBN6RmqHpsX-339">
          <mxGeometry x="560.5" y="327" width="64.5" height="18" as="geometry" />
        </mxCell>
        <mxCell id="-rH5-VLzNjBN6RmqHpsX-367" value="отклонить" style="rounded=1;whiteSpace=wrap;html=1;fillColor=#0AEEFF;" vertex="1" parent="-rH5-VLzNjBN6RmqHpsX-339">
          <mxGeometry x="631" y="327" width="63" height="18" as="geometry" />
        </mxCell>
        <mxCell id="-rH5-VLzNjBN6RmqHpsX-368" value="Actor2" style="shape=umlActor;verticalLabelPosition=bottom;verticalAlign=top;html=1;outlineConnect=0;" vertex="1" parent="1">
          <mxGeometry x="2404" y="882" width="30" height="60" as="geometry" />
        </mxCell>
        <mxCell id="-rH5-VLzNjBN6RmqHpsX-369" value="" style="shape=flexArrow;endArrow=classic;html=1;rounded=0;" edge="1" parent="1">
          <mxGeometry width="50" height="50" relative="1" as="geometry">
            <mxPoint x="2267" y="843" as="sourcePoint" />
            <mxPoint x="2397" y="923" as="targetPoint" />
          </mxGeometry>
        </mxCell>
      </root>
    </mxGraphModel>
  </diagram>
</mxfile>
